# xmcd
#
# Track frame offsets: 
#        183
#        17570
#        27663
#        41415
#        55523
#        67338
#        77518
#        88623
#        110470
#        124560
#        139470
#        152568
#        161720
#        176018
#        191805
#        203505
#
# Disc length: 2887 seconds
#
# Revision: 3
# Processed by: cddbd v1.5.2PL0 Copyright (c) Steve Scherf et al.
# Submitted via: ExactAudioCopy v0.99pb3
#
DISCID=d50b4510
DTITLE=Otto Brandenburg - To lys på et bord
DYEAR=1970
DGENRE=Dansk Pop
TTITLE0=To lys på et bord
TTITLE1=What Do You Want To Make Those Eyes At Me For
TTITLE2=Sukiyaki
TTITLE3=Susanne, Birgitte og Hanne
TTITLE4=Natten drog forbi
TTITLE5=Sytten ti
TTITLE6=Ballin' The Jack
TTITLE7=Åh, hvilken dag
TTITLE8=To kammerater
TTITLE9=Når en sailor går i land
TTITLE10=Dagdrøm
TTITLE11=Seventeen
TTITLE12=Søren Banjomus
TTITLE13=På en sommerdag
TTITLE14=En u-båd der er gul (Otto Brandenburg, Bjørn Tidmand Og Dario
TTITLE14=Campeotto)
TTITLE15=Du fille fisker
EXTD=Tracks included are original released in the period from 1960 up 
EXTD=to 1970.
EXTT0=
EXTT1=
EXTT2=
EXTT3=
EXTT4=
EXTT5=
EXTT6=
EXTT7=
EXTT8=
EXTT9=
EXTT10=
EXTT11=
EXTT12=
EXTT13=
EXTT14=
EXTT15=
PLAYORDER=
